HIERARCHY
ROOT Hips
{
	OFFSET -0.001795 -0.223333 0.028219
	CHANNELS 6 Xposition Yposition Zposition Zrotation Yrotation Xrotation 
	JOINT LeftUpLeg
	{
		OFFSET 0.069520 -0.091406 -0.006815
		CHANNELS 3 Zrotation Yrotation Xrotation
		JOINT LeftLeg
		{
			OFFSET 0.034277 -0.375199 -0.004496
			CHANNELS 3 Zrotation Yrotation Xrotation
			JOINT LeftFoot
			{
				OFFSET -0.013596 -0.397961 -0.043693
				CHANNELS 3 Zrotation Yrotation Xrotation
				JOINT LeftToe
				{
					OFFSET 0.026358 -0.055791 0.119288
					CHANNELS 3 Zrotation Yrotation Xrotation
					End Site
					{
						OFFSET 0.000000 0.000000 0.000000
					}
				}
			}
		}
	}
	JOINT RightUpLeg
	{
		OFFSET -0.067670 -0.090522 -0.004320
		CHANNELS 3 Zrotation Yrotation Xrotation
		JOINT RightLeg
		{
			OFFSET -0.038290 -0.382569 -0.008850
			CHANNELS 3 Zrotation Yrotation Xrotation
			JOINT RightFoot
			{
				OFFSET 0.015774 -0.398415 -0.042312
				CHANNELS 3 Zrotation Yrotation Xrotation
				JOINT RightToe
				{
					OFFSET -0.025372 -0.048144 0.123348
					CHANNELS 3 Zrotation Yrotation Xrotation
					End Site
					{
						OFFSET 0.000000 0.000000 0.000000
					}
				}
			}
		}
	}
	JOINT Spine
	{
		OFFSET -0.002533 0.108963 -0.026696
		CHANNELS 3 Zrotation Yrotation Xrotation
		JOINT Spine1
		{
			OFFSET 0.005487 0.135180 0.001092
			CHANNELS 3 Zrotation Yrotation Xrotation
			JOINT Spine2
			{
				OFFSET 0.001457 0.052922 0.025425
				CHANNELS 3 Zrotation Yrotation Xrotation
				JOINT Neck
				{
					OFFSET -0.002778 0.213870 -0.042857
					CHANNELS 3 Zrotation Yrotation Xrotation
					JOINT Head
					{
						OFFSET 0.005152 0.064970 0.051349
						CHANNELS 3 Zrotation Yrotation Xrotation
						End Site
						{
							OFFSET 0.000000 0.000000 0.000000
						}
					}
				}
				JOINT LeftShoulder
				{
					OFFSET 0.078845 0.121749 -0.034090
					CHANNELS 3 Zrotation Yrotation Xrotation
					JOINT LeftArm
					{
						OFFSET 0.090977 0.030469 -0.008868
						CHANNELS 3 Zrotation Yrotation Xrotation
						JOINT LeftForeArm
						{
							OFFSET 0.259612 -0.012772 -0.027456
							CHANNELS 3 Zrotation Yrotation Xrotation
							JOINT LeftHand
							{
								OFFSET 0.249234 0.008986 -0.001171
								CHANNELS 3 Zrotation Yrotation Xrotation
								End Site
								{
									OFFSET 0.000000 0.000000 0.000000
								}
							}
						}
					}
				}
				JOINT RightShoulder
				{
					OFFSET -0.081759 0.118833 -0.038615
					CHANNELS 3 Zrotation Yrotation Xrotation
					JOINT RightArm
					{
						OFFSET -0.096012 0.032551 -0.009143
						CHANNELS 3 Zrotation Yrotation Xrotation
						JOINT RightForeArm
						{
							OFFSET -0.253742 -0.013329 -0.021401
							CHANNELS 3 Zrotation Yrotation Xrotation
							JOINT RightHand
							{
								OFFSET -0.255298 0.007772 -0.005559
								CHANNELS 3 Zrotation Yrotation Xrotation
								End Site
								{
									OFFSET 0.000000 0.000000 0.000000
								}
							}
						}
					}
				}
			}
		}
	}
}
MOTION
Frames: 7
Frame Time: 0.050000
0.002099 0.862046 -0.005700 0.623360 -10.740570 -5.033810 17.220674 1.071529 -6.772279 -8.196450 3.119553 27.159257 4.922295 8.914613 -9.615379 0.000000 0.000000 0.000000 -17.234261 0.263252 -13.602155 6.059631 -0.010464 27.075574 -2.088323 0.003254 -8.026960 0.000000 0.000000 0.000000 7.140650 -1.566212 19.904077 -7.304349 2.183921 -28.940066 -4.454189 8.609489 22.031563 14.523252 -4.066936 -36.807877 0.000000 0.000000 0.000000 -24.404243 -11.666747 4.491321 -36.872528 -10.291689 -2.741514 -15.785590 -28.126110 4.970594 0.000000 0.000000 0.000000 29.477196 -2.530346 -2.791724 49.354849 11.956079 -2.283405 16.113691 26.498601 4.873437 0.000000 0.000000 0.000000 
0.001975 0.862558 -0.005849 0.655941 -10.454469 -4.823841 17.122741 1.047001 -6.975208 -8.154009 3.025982 26.688364 4.907478 8.848980 -9.624842 0.000000 0.000000 0.000000 -17.379638 0.250928 -13.387193 6.325957 -0.152528 26.368142 -2.229424 -0.455928 -8.053609 0.000000 0.000000 0.000000 7.328811 -1.608466 19.860312 -7.590726 2.247175 -28.903932 -4.353813 8.617258 22.149895 14.165265 -3.814520 -37.129479 0.000000 0.000000 0.000000 -24.411534 -11.538276 4.364450 -37.206425 -10.166697 -2.790512 -15.683508 -27.817528 4.887638 0.000000 0.000000 0.000000 29.529926 -2.701911 -2.841065 49.118353 11.961063 -2.309661 16.204316 25.943228 4.783589 0.000000 0.000000 0.000000 
0.001866 0.863039 -0.005906 0.820141 -10.330163 -4.770648 17.042514 1.039044 -7.146741 -8.196355 3.005034 26.415307 4.822671 8.651802 -9.444515 0.000000 0.000000 0.000000 -17.621720 0.235484 -13.347532 6.711382 -0.285633 26.365271 -2.358390 -0.854781 -8.090951 0.000000 0.000000 0.000000 7.301045 -1.616670 19.970541 -7.733873 2.278691 -28.903992 -4.379098 8.625606 22.408159 13.712779 -3.595601 -37.214598 0.000000 0.000000 0.000000 -24.470148 -11.221098 4.166460 -37.229019 -10.114831 -2.825115 -15.505530 -27.730924 4.827708 0.000000 0.000000 0.000000 29.832931 -2.789766 -2.893813 48.930155 11.574187 -2.501527 16.202866 25.461081 4.683789 0.000000 0.000000 0.000000 
0.001684 0.863775 -0.005579 0.813857 -10.054428 -4.579455 16.940842 1.025593 -7.506027 -8.109836 2.937933 26.356781 4.723463 8.378515 -9.356149 0.000000 0.000000 0.000000 -17.509035 0.230396 -13.319953 6.722069 -0.316986 26.270834 -2.416450 -0.955098 -8.252454 0.000000 0.000000 0.000000 7.355876 -1.630587 19.804369 -7.844048 2.304127 -28.788115 -4.263410 8.772104 22.660703 13.246163 -3.383294 -37.015374 0.000000 0.000000 0.000000 -24.570271 -11.037884 3.968887 -37.333953 -9.811031 -2.906536 -15.295202 -27.608452 4.743525 0.000000 0.000000 0.000000 30.438359 -2.928590 -2.922856 48.747937 11.364945 -2.648635 15.389576 24.665350 4.353622 0.000000 0.000000 0.000000 
0.001316 0.863959 -0.004625 0.865309 -9.806101 -4.633519 16.969699 1.019325 -7.569803 -8.055129 2.884329 26.317060 4.594810 8.020225 -9.312255 0.000000 0.000000 0.000000 -17.510490 0.218668 -13.095244 6.814676 -0.360257 26.473444 -2.488191 -0.922889 -8.641633 0.000000 0.000000 0.000000 7.375968 -1.645724 19.858271 -8.126504 2.375085 -28.479845 -4.281347 8.709494 22.525869 13.018106 -3.323111 -36.671945 0.000000 0.000000 0.000000 -24.605114 -10.600763 3.667269 -37.470019 -9.271444 -3.051545 -15.393529 -27.712016 4.786063 0.000000 0.000000 0.000000 30.604204 -3.106835 -3.021002 48.736612 10.672824 -2.927954 15.355053 24.303753 4.277969 0.000000 0.000000 0.000000 
0.000739 0.864124 -0.003172 0.937746 -9.322200 -4.904670 16.759323 0.948117 -7.136864 -7.888984 2.726839 25.869509 4.538052 7.807503 -9.366732 0.000000 0.000000 0.000000 -17.282839 0.209380 -12.420415 6.548180 -0.312153 26.497177 -2.502777 -0.747218 -9.006919 0.000000 0.000000 0.000000 7.451565 -1.677103 19.961479 -8.224646 2.400504 -28.568432 -4.294211 8.822344 22.835465 12.573863 -3.136139 -36.339741 0.000000 0.000000 0.000000 -24.842950 -10.272181 3.338472 -37.554164 -8.907601 -3.143948 -15.678891 -27.728298 4.845722 0.000000 0.000000 0.000000 31.018223 -3.762426 -3.336437 48.795645 10.351759 -3.146439 15.509123 24.021276 4.283825 0.000000 0.000000 0.000000 
0.000206 0.863771 -0.001821 0.795244 -8.673150 -5.041326 16.803398 0.915686 -7.087756 -7.555444 2.529723 25.892274 4.352179 7.207749 -9.466771 0.000000 0.000000 0.000000 -16.945889 0.189338 -11.986679 6.324613 -0.290681 26.630858 -2.606687 -0.803009 -9.501045 0.000000 0.000000 0.000000 7.567101 -1.724228 20.031135 -8.348254 2.432593 -28.608773 -4.323702 8.677733 22.903493 12.285766 -3.023009 -36.031174 0.000000 0.000000 0.000000 -24.927317 -9.791270 2.955697 -37.464577 -8.421641 -3.252181 -16.167414 -27.670254 4.943868 0.000000 0.000000 0.000000 31.068144 -4.188420 -3.528144 49.262309 9.691132 -3.456023 15.498835 24.024284 4.307078 0.000000 0.000000 0.000000 
